<svg width="147" height="78" viewBox="0 0 147 78" fill="none" xmlns="http://www.w3.org/2000/svg">
<rect x="0.0234375" y="4" width="144" height="25" transform="rotate(0.0532014 0.0234375 4)" fill="#8892ED"/>
<ellipse cx="3.64527" cy="3.54556" rx="3.64527" ry="3.54556" transform="matrix(1 0.000574726 -0.00150017 0.999999 0.0429688 0)" fill="white"/>
<ellipse cx="3.64527" cy="3.54556" rx="3.64527" ry="3.54556" transform="matrix(1 0.000574726 -0.00150017 0.999999 6.28906 1.9375)" fill="white"/>
<ellipse cx="3.64527" cy="3.54556" rx="3.64527" ry="3.54556" transform="matrix(1 0.000574726 -0.00150017 0.999999 12.541 0.00708008)" fill="white"/>
<ellipse cx="3.64527" cy="3.54556" rx="3.64527" ry="3.54556" transform="matrix(1 0.000574726 -0.00150017 0.999999 18.7861 1.94458)" fill="white"/>
<ellipse cx="3.61035" cy="3.54556" rx="3.61035" ry="3.54556" transform="matrix(1 0.000574726 -0.00150017 0.999999 24.627 0.0141602)" fill="white"/>
<ellipse cx="3.64527" cy="3.54556" rx="3.64527" ry="3.54556" transform="matrix(1 0.000574726 -0.00150017 0.999999 30.2432 1.95117)" fill="white"/>
<ellipse cx="3.64527" cy="3.54556" rx="3.64527" ry="3.54556" transform="matrix(1 0.000574726 -0.00150017 0.999999 36.4951 0.0209961)" fill="white"/>
<ellipse cx="3.64527" cy="3.54556" rx="3.64527" ry="3.54556" transform="matrix(1 0.000574726 -0.00150017 0.999999 42.7412 1.9585)" fill="white"/>
<ellipse cx="3.64527" cy="3.54556" rx="3.64527" ry="3.54556" transform="matrix(1 0.000574726 -0.00150017 0.999999 48.043 0)" fill="white"/>
<ellipse cx="3.64527" cy="3.54556" rx="3.64527" ry="3.54556" transform="matrix(1 0.000574726 -0.00150017 0.999999 54.2891 1.9375)" fill="white"/>
<ellipse cx="3.64527" cy="3.54556" rx="3.64527" ry="3.54556" transform="matrix(1 0.000574726 -0.00150017 0.999999 60.541 0.00708008)" fill="white"/>
<ellipse cx="3.64527" cy="3.54556" rx="3.64527" ry="3.54556" transform="matrix(1 0.000574726 -0.00150017 0.999999 66.7861 1.94458)" fill="white"/>
<ellipse cx="3.61035" cy="3.54556" rx="3.61035" ry="3.54556" transform="matrix(1 0.000574726 -0.00150017 0.999999 72.627 0.0141602)" fill="white"/>
<ellipse cx="3.64527" cy="3.54556" rx="3.64527" ry="3.54556" transform="matrix(1 0.000574726 -0.00150017 0.999999 78.2432 1.95117)" fill="white"/>
<ellipse cx="3.64527" cy="3.54556" rx="3.64527" ry="3.54556" transform="matrix(1 0.000574726 -0.00150017 0.999999 84.4951 0.0209961)" fill="white"/>
<ellipse cx="3.64527" cy="3.54556" rx="3.64527" ry="3.54556" transform="matrix(1 0.000574726 -0.00150017 0.999999 90.7412 1.9585)" fill="white"/>
<ellipse cx="3.64527" cy="3.54556" rx="3.64527" ry="3.54556" transform="matrix(1 0.000574726 -0.00150017 0.999999 96.043 0)" fill="white"/>
<ellipse cx="3.64527" cy="3.54556" rx="3.64527" ry="3.54556" transform="matrix(1 0.000574726 -0.00150017 0.999999 102.289 1.9375)" fill="white"/>
<ellipse cx="3.64527" cy="3.54556" rx="3.64527" ry="3.54556" transform="matrix(1 0.000574726 -0.00150017 0.999999 108.541 0.00708008)" fill="white"/>
<ellipse cx="3.64527" cy="3.54556" rx="3.64527" ry="3.54556" transform="matrix(1 0.000574726 -0.00150017 0.999999 114.786 1.94458)" fill="white"/>
<ellipse cx="3.61035" cy="3.54556" rx="3.61035" ry="3.54556" transform="matrix(1 0.000574726 -0.00150017 0.999999 120.627 0.0141602)" fill="white"/>
<ellipse cx="3.64527" cy="3.54556" rx="3.64527" ry="3.54556" transform="matrix(1 0.000574726 -0.00150017 0.999999 126.243 1.95117)" fill="white"/>
<ellipse cx="3.64527" cy="3.54556" rx="3.64527" ry="3.54556" transform="matrix(1 0.000574726 -0.00150017 0.999999 132.495 0.0209961)" fill="white"/>
<ellipse cx="3.64527" cy="3.54556" rx="3.64527" ry="3.54556" transform="matrix(1 0.000574726 -0.00150017 0.999999 138.741 1.9585)" fill="white"/>
<path d="M8.5 78L1.13879 29.25L15.8612 29.25L8.5 78Z" fill="white"/>
<path d="M22.5 78L15.1388 29.25L29.8612 29.25L22.5 78Z" fill="white"/>
<path d="M36.5 78L29.1388 29.25L43.8612 29.25L36.5 78Z" fill="white"/>
<path d="M50.5 78L43.1388 29.25L57.8612 29.25L50.5 78Z" fill="white"/>
<path d="M65 78L58.0718 29.25L71.9282 29.25L65 78Z" fill="white"/>
<path d="M79 78L72.0718 29.25L85.9282 29.25L79 78Z" fill="white"/>
<path d="M93.5 78L86.1388 29.25L100.861 29.25L93.5 78Z" fill="white"/>
<path d="M107.5 78L100.139 29.25L114.861 29.25L107.5 78Z" fill="white"/>
<path d="M121.5 78L114.139 29.25L128.861 29.25L121.5 78Z" fill="white"/>
<path d="M135.5 78L128.139 29.25L142.861 29.25L135.5 78Z" fill="white"/>
</svg>
