<svg width="147" height="30" viewBox="0 0 147 30" fill="none" xmlns="http://www.w3.org/2000/svg">
<rect x="0.991211" y="4" width="144" height="25" transform="rotate(0.0532014 0.991211 4)" fill="#8892ED"/>
<ellipse cx="3.64527" cy="3.54556" rx="3.64527" ry="3.54556" transform="matrix(1 0.000574726 -0.00150017 0.999999 1.01074 0)" fill="white"/>
<ellipse cx="3.64527" cy="3.54556" rx="3.64527" ry="3.54556" transform="matrix(1 0.000574726 -0.00150017 0.999999 7.25684 1.9375)" fill="white"/>
<ellipse cx="3.64527" cy="3.54556" rx="3.64527" ry="3.54556" transform="matrix(1 0.000574726 -0.00150017 0.999999 13.5088 0.00708008)" fill="white"/>
<ellipse cx="3.64527" cy="3.54556" rx="3.64527" ry="3.54556" transform="matrix(1 0.000574726 -0.00150017 0.999999 19.7544 1.94458)" fill="white"/>
<ellipse cx="3.61035" cy="3.54556" rx="3.61035" ry="3.54556" transform="matrix(1 0.000574726 -0.00150017 0.999999 25.5947 0.0141602)" fill="white"/>
<ellipse cx="3.64527" cy="3.54556" rx="3.64527" ry="3.54556" transform="matrix(1 0.000574726 -0.00150017 0.999999 31.2114 1.95117)" fill="white"/>
<ellipse cx="3.64527" cy="3.54556" rx="3.64527" ry="3.54556" transform="matrix(1 0.000574726 -0.00150017 0.999999 37.4634 0.0209961)" fill="white"/>
<ellipse cx="3.64527" cy="3.54556" rx="3.64527" ry="3.54556" transform="matrix(1 0.000574726 -0.00150017 0.999999 43.7095 1.9585)" fill="white"/>
<ellipse cx="3.64527" cy="3.54556" rx="3.64527" ry="3.54556" transform="matrix(1 0.000574726 -0.00150017 0.999999 49.0107 0)" fill="white"/>
<ellipse cx="3.64527" cy="3.54556" rx="3.64527" ry="3.54556" transform="matrix(1 0.000574726 -0.00150017 0.999999 55.2568 1.9375)" fill="white"/>
<ellipse cx="3.64527" cy="3.54556" rx="3.64527" ry="3.54556" transform="matrix(1 0.000574726 -0.00150017 0.999999 61.5088 0.00708008)" fill="white"/>
<ellipse cx="3.64527" cy="3.54556" rx="3.64527" ry="3.54556" transform="matrix(1 0.000574726 -0.00150017 0.999999 67.7544 1.94458)" fill="white"/>
<ellipse cx="3.61035" cy="3.54556" rx="3.61035" ry="3.54556" transform="matrix(1 0.000574726 -0.00150017 0.999999 73.5947 0.0141602)" fill="white"/>
<ellipse cx="3.64527" cy="3.54556" rx="3.64527" ry="3.54556" transform="matrix(1 0.000574726 -0.00150017 0.999999 79.2114 1.95117)" fill="white"/>
<ellipse cx="3.64527" cy="3.54556" rx="3.64527" ry="3.54556" transform="matrix(1 0.000574726 -0.00150017 0.999999 85.4634 0.0209961)" fill="white"/>
<ellipse cx="3.64527" cy="3.54556" rx="3.64527" ry="3.54556" transform="matrix(1 0.000574726 -0.00150017 0.999999 91.7095 1.9585)" fill="white"/>
<ellipse cx="3.64527" cy="3.54556" rx="3.64527" ry="3.54556" transform="matrix(1 0.000574726 -0.00150017 0.999999 97.0107 0)" fill="white"/>
<ellipse cx="3.64527" cy="3.54556" rx="3.64527" ry="3.54556" transform="matrix(1 0.000574726 -0.00150017 0.999999 103.257 1.9375)" fill="white"/>
<ellipse cx="3.64527" cy="3.54556" rx="3.64527" ry="3.54556" transform="matrix(1 0.000574726 -0.00150017 0.999999 109.509 0.00708008)" fill="white"/>
<ellipse cx="3.64527" cy="3.54556" rx="3.64527" ry="3.54556" transform="matrix(1 0.000574726 -0.00150017 0.999999 115.754 1.94458)" fill="white"/>
<ellipse cx="3.61035" cy="3.54556" rx="3.61035" ry="3.54556" transform="matrix(1 0.000574726 -0.00150017 0.999999 121.595 0.0141602)" fill="white"/>
<ellipse cx="3.64527" cy="3.54556" rx="3.64527" ry="3.54556" transform="matrix(1 0.000574726 -0.00150017 0.999999 127.211 1.95117)" fill="white"/>
<ellipse cx="3.64527" cy="3.54556" rx="3.64527" ry="3.54556" transform="matrix(1 0.000574726 -0.00150017 0.999999 133.463 0.0209961)" fill="white"/>
<ellipse cx="3.64527" cy="3.54556" rx="3.64527" ry="3.54556" transform="matrix(1 0.000574726 -0.00150017 0.999999 139.709 1.9585)" fill="white"/>
</svg>
