<svg width="435" height="30" viewBox="0 0 435 30" fill="none" xmlns="http://www.w3.org/2000/svg">
<rect x="288.023" y="4" width="144" height="25" transform="rotate(0.0532014 288.023 4)" fill="#8892ED"/>
<ellipse cx="3.64527" cy="3.54556" rx="3.64527" ry="3.54556" transform="matrix(1 0.000574726 -0.00150017 0.999999 288.043 0)" fill="white"/>
<ellipse cx="3.64527" cy="3.54556" rx="3.64527" ry="3.54556" transform="matrix(1 0.000574726 -0.00150017 0.999999 294.289 1.9375)" fill="white"/>
<ellipse cx="3.64527" cy="3.54556" rx="3.64527" ry="3.54556" transform="matrix(1 0.000574726 -0.00150017 0.999999 300.541 0.00708008)" fill="white"/>
<ellipse cx="3.64527" cy="3.54556" rx="3.64527" ry="3.54556" transform="matrix(1 0.000574726 -0.00150017 0.999999 306.787 1.94458)" fill="white"/>
<ellipse cx="3.61035" cy="3.54556" rx="3.61035" ry="3.54556" transform="matrix(1 0.000574726 -0.00150017 0.999999 312.627 0.0141602)" fill="white"/>
<ellipse cx="3.64527" cy="3.54556" rx="3.64527" ry="3.54556" transform="matrix(1 0.000574726 -0.00150017 0.999999 318.244 1.95117)" fill="white"/>
<ellipse cx="3.64527" cy="3.54556" rx="3.64527" ry="3.54556" transform="matrix(1 0.000574726 -0.00150017 0.999999 324.496 0.0209961)" fill="white"/>
<ellipse cx="3.64527" cy="3.54556" rx="3.64527" ry="3.54556" transform="matrix(1 0.000574726 -0.00150017 0.999999 330.742 1.9585)" fill="white"/>
<ellipse cx="3.64527" cy="3.54556" rx="3.64527" ry="3.54556" transform="matrix(1 0.000574726 -0.00150017 0.999999 336.043 0)" fill="white"/>
<ellipse cx="3.64527" cy="3.54556" rx="3.64527" ry="3.54556" transform="matrix(1 0.000574726 -0.00150017 0.999999 342.289 1.9375)" fill="white"/>
<ellipse cx="3.64527" cy="3.54556" rx="3.64527" ry="3.54556" transform="matrix(1 0.000574726 -0.00150017 0.999999 348.541 0.00708008)" fill="white"/>
<ellipse cx="3.64527" cy="3.54556" rx="3.64527" ry="3.54556" transform="matrix(1 0.000574726 -0.00150017 0.999999 354.787 1.94458)" fill="white"/>
<ellipse cx="3.61035" cy="3.54556" rx="3.61035" ry="3.54556" transform="matrix(1 0.000574726 -0.00150017 0.999999 360.627 0.0141602)" fill="white"/>
<ellipse cx="3.64527" cy="3.54556" rx="3.64527" ry="3.54556" transform="matrix(1 0.000574726 -0.00150017 0.999999 366.244 1.95117)" fill="white"/>
<ellipse cx="3.64527" cy="3.54556" rx="3.64527" ry="3.54556" transform="matrix(1 0.000574726 -0.00150017 0.999999 372.496 0.0209961)" fill="white"/>
<ellipse cx="3.64527" cy="3.54556" rx="3.64527" ry="3.54556" transform="matrix(1 0.000574726 -0.00150017 0.999999 378.742 1.9585)" fill="white"/>
<ellipse cx="3.64527" cy="3.54556" rx="3.64527" ry="3.54556" transform="matrix(1 0.000574726 -0.00150017 0.999999 384.043 0)" fill="white"/>
<ellipse cx="3.64527" cy="3.54556" rx="3.64527" ry="3.54556" transform="matrix(1 0.000574726 -0.00150017 0.999999 390.289 1.9375)" fill="white"/>
<ellipse cx="3.64527" cy="3.54556" rx="3.64527" ry="3.54556" transform="matrix(1 0.000574726 -0.00150017 0.999999 396.541 0.00708008)" fill="white"/>
<ellipse cx="3.64527" cy="3.54556" rx="3.64527" ry="3.54556" transform="matrix(1 0.000574726 -0.00150017 0.999999 402.787 1.94458)" fill="white"/>
<ellipse cx="3.61035" cy="3.54556" rx="3.61035" ry="3.54556" transform="matrix(1 0.000574726 -0.00150017 0.999999 408.627 0.0141602)" fill="white"/>
<ellipse cx="3.64527" cy="3.54556" rx="3.64527" ry="3.54556" transform="matrix(1 0.000574726 -0.00150017 0.999999 414.244 1.95117)" fill="white"/>
<ellipse cx="3.64527" cy="3.54556" rx="3.64527" ry="3.54556" transform="matrix(1 0.000574726 -0.00150017 0.999999 420.496 0.0209961)" fill="white"/>
<ellipse cx="3.64527" cy="3.54556" rx="3.64527" ry="3.54556" transform="matrix(1 0.000574726 -0.00150017 0.999999 426.742 1.9585)" fill="white"/>
<rect x="144.023" y="4" width="144" height="25" transform="rotate(0.0532014 144.023 4)" fill="#8892ED"/>
<ellipse cx="3.64527" cy="3.54556" rx="3.64527" ry="3.54556" transform="matrix(1 0.000574726 -0.00150017 0.999999 144.043 0)" fill="white"/>
<ellipse cx="3.64527" cy="3.54556" rx="3.64527" ry="3.54556" transform="matrix(1 0.000574726 -0.00150017 0.999999 150.289 1.9375)" fill="white"/>
<ellipse cx="3.64527" cy="3.54556" rx="3.64527" ry="3.54556" transform="matrix(1 0.000574726 -0.00150017 0.999999 156.541 0.00708008)" fill="white"/>
<ellipse cx="3.64527" cy="3.54556" rx="3.64527" ry="3.54556" transform="matrix(1 0.000574726 -0.00150017 0.999999 162.787 1.94458)" fill="white"/>
<ellipse cx="3.61035" cy="3.54556" rx="3.61035" ry="3.54556" transform="matrix(1 0.000574726 -0.00150017 0.999999 168.627 0.0141602)" fill="white"/>
<ellipse cx="3.64527" cy="3.54556" rx="3.64527" ry="3.54556" transform="matrix(1 0.000574726 -0.00150017 0.999999 174.244 1.95117)" fill="white"/>
<ellipse cx="3.64527" cy="3.54556" rx="3.64527" ry="3.54556" transform="matrix(1 0.000574726 -0.00150017 0.999999 180.496 0.0209961)" fill="white"/>
<ellipse cx="3.64527" cy="3.54556" rx="3.64527" ry="3.54556" transform="matrix(1 0.000574726 -0.00150017 0.999999 186.742 1.9585)" fill="white"/>
<ellipse cx="3.64527" cy="3.54556" rx="3.64527" ry="3.54556" transform="matrix(1 0.000574726 -0.00150017 0.999999 192.043 0)" fill="white"/>
<ellipse cx="3.64527" cy="3.54556" rx="3.64527" ry="3.54556" transform="matrix(1 0.000574726 -0.00150017 0.999999 198.289 1.9375)" fill="white"/>
<ellipse cx="3.64527" cy="3.54556" rx="3.64527" ry="3.54556" transform="matrix(1 0.000574726 -0.00150017 0.999999 204.541 0.00708008)" fill="white"/>
<ellipse cx="3.64527" cy="3.54556" rx="3.64527" ry="3.54556" transform="matrix(1 0.000574726 -0.00150017 0.999999 210.787 1.94458)" fill="white"/>
<ellipse cx="3.61035" cy="3.54556" rx="3.61035" ry="3.54556" transform="matrix(1 0.000574726 -0.00150017 0.999999 216.627 0.0141602)" fill="white"/>
<ellipse cx="3.64527" cy="3.54556" rx="3.64527" ry="3.54556" transform="matrix(1 0.000574726 -0.00150017 0.999999 222.244 1.95117)" fill="white"/>
<ellipse cx="3.64527" cy="3.54556" rx="3.64527" ry="3.54556" transform="matrix(1 0.000574726 -0.00150017 0.999999 228.496 0.0209961)" fill="white"/>
<ellipse cx="3.64527" cy="3.54556" rx="3.64527" ry="3.54556" transform="matrix(1 0.000574726 -0.00150017 0.999999 234.742 1.9585)" fill="white"/>
<ellipse cx="3.64527" cy="3.54556" rx="3.64527" ry="3.54556" transform="matrix(1 0.000574726 -0.00150017 0.999999 240.043 0)" fill="white"/>
<ellipse cx="3.64527" cy="3.54556" rx="3.64527" ry="3.54556" transform="matrix(1 0.000574726 -0.00150017 0.999999 246.289 1.9375)" fill="white"/>
<ellipse cx="3.64527" cy="3.54556" rx="3.64527" ry="3.54556" transform="matrix(1 0.000574726 -0.00150017 0.999999 252.541 0.00708008)" fill="white"/>
<ellipse cx="3.64527" cy="3.54556" rx="3.64527" ry="3.54556" transform="matrix(1 0.000574726 -0.00150017 0.999999 258.787 1.94458)" fill="white"/>
<ellipse cx="3.61035" cy="3.54556" rx="3.61035" ry="3.54556" transform="matrix(1 0.000574726 -0.00150017 0.999999 264.627 0.0141602)" fill="white"/>
<ellipse cx="3.64527" cy="3.54556" rx="3.64527" ry="3.54556" transform="matrix(1 0.000574726 -0.00150017 0.999999 270.244 1.95117)" fill="white"/>
<ellipse cx="3.64527" cy="3.54556" rx="3.64527" ry="3.54556" transform="matrix(1 0.000574726 -0.00150017 0.999999 276.496 0.0209961)" fill="white"/>
<ellipse cx="3.64527" cy="3.54556" rx="3.64527" ry="3.54556" transform="matrix(1 0.000574726 -0.00150017 0.999999 282.742 1.9585)" fill="white"/>
<rect x="0.0234375" y="4" width="144" height="25" transform="rotate(0.0532014 0.0234375 4)" fill="#8892ED"/>
<ellipse cx="3.64527" cy="3.54556" rx="3.64527" ry="3.54556" transform="matrix(1 0.000574726 -0.00150017 0.999999 0.0429688 0)" fill="white"/>
<ellipse cx="3.64527" cy="3.54556" rx="3.64527" ry="3.54556" transform="matrix(1 0.000574726 -0.00150017 0.999999 6.28906 1.9375)" fill="white"/>
<ellipse cx="3.64527" cy="3.54556" rx="3.64527" ry="3.54556" transform="matrix(1 0.000574726 -0.00150017 0.999999 12.541 0.00708008)" fill="white"/>
<ellipse cx="3.64527" cy="3.54556" rx="3.64527" ry="3.54556" transform="matrix(1 0.000574726 -0.00150017 0.999999 18.7866 1.94458)" fill="white"/>
<ellipse cx="3.61035" cy="3.54556" rx="3.61035" ry="3.54556" transform="matrix(1 0.000574726 -0.00150017 0.999999 24.627 0.0141602)" fill="white"/>
<ellipse cx="3.64527" cy="3.54556" rx="3.64527" ry="3.54556" transform="matrix(1 0.000574726 -0.00150017 0.999999 30.2437 1.95117)" fill="white"/>
<ellipse cx="3.64527" cy="3.54556" rx="3.64527" ry="3.54556" transform="matrix(1 0.000574726 -0.00150017 0.999999 36.4956 0.0209961)" fill="white"/>
<ellipse cx="3.64527" cy="3.54556" rx="3.64527" ry="3.54556" transform="matrix(1 0.000574726 -0.00150017 0.999999 42.7417 1.9585)" fill="white"/>
<ellipse cx="3.64527" cy="3.54556" rx="3.64527" ry="3.54556" transform="matrix(1 0.000574726 -0.00150017 0.999999 48.043 0)" fill="white"/>
<ellipse cx="3.64527" cy="3.54556" rx="3.64527" ry="3.54556" transform="matrix(1 0.000574726 -0.00150017 0.999999 54.2891 1.9375)" fill="white"/>
<ellipse cx="3.64527" cy="3.54556" rx="3.64527" ry="3.54556" transform="matrix(1 0.000574726 -0.00150017 0.999999 60.541 0.00708008)" fill="white"/>
<ellipse cx="3.64527" cy="3.54556" rx="3.64527" ry="3.54556" transform="matrix(1 0.000574726 -0.00150017 0.999999 66.7866 1.94458)" fill="white"/>
<ellipse cx="3.61035" cy="3.54556" rx="3.61035" ry="3.54556" transform="matrix(1 0.000574726 -0.00150017 0.999999 72.627 0.0141602)" fill="white"/>
<ellipse cx="3.64527" cy="3.54556" rx="3.64527" ry="3.54556" transform="matrix(1 0.000574726 -0.00150017 0.999999 78.2437 1.95117)" fill="white"/>
<ellipse cx="3.64527" cy="3.54556" rx="3.64527" ry="3.54556" transform="matrix(1 0.000574726 -0.00150017 0.999999 84.4956 0.0209961)" fill="white"/>
<ellipse cx="3.64527" cy="3.54556" rx="3.64527" ry="3.54556" transform="matrix(1 0.000574726 -0.00150017 0.999999 90.7417 1.9585)" fill="white"/>
<ellipse cx="3.64527" cy="3.54556" rx="3.64527" ry="3.54556" transform="matrix(1 0.000574726 -0.00150017 0.999999 96.043 0)" fill="white"/>
<ellipse cx="3.64527" cy="3.54556" rx="3.64527" ry="3.54556" transform="matrix(1 0.000574726 -0.00150017 0.999999 102.289 1.9375)" fill="white"/>
<ellipse cx="3.64527" cy="3.54556" rx="3.64527" ry="3.54556" transform="matrix(1 0.000574726 -0.00150017 0.999999 108.541 0.00708008)" fill="white"/>
<ellipse cx="3.64527" cy="3.54556" rx="3.64527" ry="3.54556" transform="matrix(1 0.000574726 -0.00150017 0.999999 114.787 1.94458)" fill="white"/>
<ellipse cx="3.61035" cy="3.54556" rx="3.61035" ry="3.54556" transform="matrix(1 0.000574726 -0.00150017 0.999999 120.627 0.0141602)" fill="white"/>
<ellipse cx="3.64527" cy="3.54556" rx="3.64527" ry="3.54556" transform="matrix(1 0.000574726 -0.00150017 0.999999 126.244 1.95117)" fill="white"/>
<ellipse cx="3.64527" cy="3.54556" rx="3.64527" ry="3.54556" transform="matrix(1 0.000574726 -0.00150017 0.999999 132.496 0.0209961)" fill="white"/>
<ellipse cx="3.64527" cy="3.54556" rx="3.64527" ry="3.54556" transform="matrix(1 0.000574726 -0.00150017 0.999999 138.742 1.9585)" fill="white"/>
</svg>
