<svg width="338" height="213" viewBox="0 0 338 213" fill="none" xmlns="http://www.w3.org/2000/svg">
<rect x="168" y="70" width="170" height="143" rx="5" fill="#8892ED"/>
<rect y="124" width="170" height="89" rx="5" fill="#8892ED"/>
<path d="M241.938 144.875C241.938 138.542 242.188 131.792 242.688 124.625C239.854 124.042 237.333 123.271 235.125 122.312C232.917 121.312 231.417 120.312 230.625 119.312C230.625 113.896 231.417 109.188 233 105.188H256.562C259.854 105.188 262.312 105.938 263.938 107.438C265.604 108.938 266.667 110.812 267.125 113.062C267.583 115.312 267.812 118.104 267.812 121.438C267.812 126.896 267.604 132.542 267.188 138.375C266.812 144.208 266.229 151.542 265.438 160.375C264.979 164.875 264.521 170.271 264.062 176.562C260.688 178.396 256.938 179.312 252.812 179.312C249.229 179.312 245.854 178.667 242.688 177.375C242.188 169.25 241.938 158.417 241.938 144.875Z" fill="white"/>
<path d="M68.8242 189.673C68.8242 187.534 69.3516 185.542 70.4062 183.696C71.4902 181.821 73.1748 180.225 75.46 178.906C76.0752 178.906 77.1738 179.126 78.7559 179.565C80.3379 180.005 81.2607 180.269 81.5244 180.356C81.9346 180.532 82.3594 180.664 82.7988 180.752C83.9414 179.785 85.2012 178.496 86.5781 176.885C87.9844 175.244 89.2441 173.545 90.3574 171.787C91.4707 170 92.2178 168.418 92.5986 167.041C92.4814 166.455 92.335 165.942 92.1592 165.503C92.0127 165.063 91.7344 164.668 91.3242 164.316C90.1816 164.082 88.9512 163.965 87.6328 163.965C84.1758 163.965 79.7959 165.151 74.4932 167.524C73.2627 166.089 72.2373 164.316 71.417 162.207C70.626 160.068 70.2305 157.842 70.2305 155.527C70.2305 155 70.2451 154.604 70.2744 154.341C71.4756 153.14 73.541 151.777 76.4707 150.254C79.4297 148.701 83.4873 147.925 88.6436 147.925C94.9717 147.925 100.245 149.053 104.464 151.309C108.683 153.535 110.792 157.212 110.792 162.339C110.792 166.001 109.649 169.268 107.364 172.139C105.108 175.01 102.721 177.266 100.201 178.906C97.6816 180.547 94.8838 182.158 91.8076 183.74V184.399L102.574 185.63L105.211 180.708L112.418 181.279C113.004 182.773 113.458 184.18 113.78 185.498C114.132 186.816 114.308 188.164 114.308 189.541C114.308 191.592 113.854 193.481 112.945 195.21C112.037 196.938 110.777 198.315 109.166 199.341C107.584 200.366 105.826 200.879 103.893 200.879C101.08 200.879 98.1797 200.146 95.1914 198.682C92.2031 197.188 89.3174 195.283 86.5342 192.969C85.2158 195.254 83.6924 197.026 81.9639 198.286C80.2354 199.546 78.082 200.264 75.5039 200.439C74.1855 200.088 73.0137 199.385 71.9883 198.33C70.9922 197.275 70.2158 196.001 69.6592 194.507C69.1025 192.983 68.8242 191.372 68.8242 189.673Z" fill="white"/>
<circle cx="259" cy="35" r="35" fill="#3AA8A7"/>
<circle cx="257.5" cy="25.5" r="6.5" transform="rotate(180 257.5 25.5)" fill="white"/>
<circle cx="259.5" cy="25.5" r="4.5" transform="rotate(180 259.5 25.5)" fill="black"/>
<circle cx="280.5" cy="25.5" r="6.5" transform="rotate(180 280.5 25.5)" fill="white"/>
<circle cx="282.5" cy="25.5" r="4.5" transform="rotate(180 282.5 25.5)" fill="black"/>
<circle cx="262" cy="26" r="2" transform="rotate(180 262 26)" fill="white"/>
<circle cx="285" cy="26" r="2" transform="rotate(180 285 26)" fill="white"/>
<ellipse cx="85" cy="95" rx="35" ry="29" fill="#FFD576"/>
<circle cx="75.5" cy="88.5" r="6.5" transform="rotate(180 75.5 88.5)" fill="white"/>
<circle cx="75.5" cy="88.5" r="4.5" transform="rotate(180 75.5 88.5)" fill="black"/>
<circle cx="98.5" cy="88.5" r="6.5" transform="rotate(180 98.5 88.5)" fill="white"/>
<circle cx="98.5" cy="88.5" r="4.5" transform="rotate(180 98.5 88.5)" fill="black"/>
<circle cx="78" cy="89" r="2" transform="rotate(180 78 89)" fill="white"/>
<circle cx="101" cy="89" r="2" transform="rotate(180 101 89)" fill="white"/>
<rect x="69.1309" y="78" width="13.2981" height="8" transform="rotate(0.941617 69.1309 78)" fill="#FFD576"/>
<rect x="92.1309" y="78" width="13.2981" height="8" transform="rotate(0.941617 92.1309 78)" fill="#FFD576"/>
<line x1="69.1581" y1="77.5257" x2="81.1581" y2="81.5257" stroke="black"/>
<line x1="93.8077" y1="82.5385" x2="105.808" y2="77.5385" stroke="black"/>
</svg>
